<svg width="268" height="50" viewBox="0 0 268 50" fill="none" xmlns="http://www.w3.org/2000/svg">
<g clip-path="url(#clip0_11_101)">
<path d="M17.7347 26.5937L19.224 20.5966L14.3677 16.6191L20.7618 16.0487L23.2709 10.4833L25.7799 16.1103L32.174 16.6191L27.3177 20.5966L28.807 26.5937L23.2709 23.4178L17.7347 26.5937ZM23.2709 3.08325C25.3966 3.08325 27.5016 3.48202 29.4656 4.25678C31.4295 5.03154 33.214 6.16712 34.7172 7.59869C36.2203 9.03026 37.4127 10.7298 38.2262 12.6002C39.0397 14.4707 39.4584 16.4754 39.4584 18.4999C39.4584 22.5887 37.7529 26.51 34.7172 29.4011C31.6814 32.2923 27.5641 33.9166 23.2709 33.9166C21.1451 33.9166 19.0401 33.5178 17.0762 32.7431C15.1122 31.9683 13.3277 30.8327 11.8246 29.4011C8.78884 26.51 7.08337 22.5887 7.08337 18.4999C7.08337 14.4112 8.78884 10.4899 11.8246 7.59869C14.8603 4.7075 18.9777 3.08325 23.2709 3.08325ZM23.2709 6.16659C19.8363 6.16659 16.5424 7.46599 14.1138 9.77894C11.6852 12.0919 10.3209 15.2289 10.3209 18.4999C10.3209 21.7709 11.6852 24.908 14.1138 27.2209C16.5424 29.5339 19.8363 30.8333 23.2709 30.8333C26.7054 30.8333 29.9993 29.5339 32.4279 27.2209C34.8565 24.908 36.2209 21.7709 36.2209 18.4999C36.2209 15.2289 34.8565 12.0919 32.4279 9.77894C29.9993 7.46599 26.7054 6.16659 23.2709 6.16659Z" fill="#6667AB"/>
<path d="M58.7347 26.5937L60.224 20.5966L55.3677 16.6191L61.7618 16.0487L64.2709 10.4833L66.7799 16.1103L73.174 16.6191L68.3177 20.5966L69.807 26.5937L64.2709 23.4178L58.7347 26.5937ZM64.2709 3.08325C66.3966 3.08325 68.5016 3.48202 70.4656 4.25678C72.4295 5.03154 74.214 6.16712 75.7172 7.59869C77.2203 9.03026 78.4127 10.7298 79.2262 12.6002C80.0397 14.4707 80.4584 16.4754 80.4584 18.4999C80.4584 22.5887 78.7529 26.51 75.7172 29.4011C72.6814 32.2923 68.5641 33.9166 64.2709 33.9166C62.1451 33.9166 60.0401 33.5178 58.0762 32.7431C56.1122 31.9683 54.3277 30.8327 52.8246 29.4011C49.7888 26.51 48.0834 22.5887 48.0834 18.4999C48.0834 14.4112 49.7888 10.4899 52.8246 7.59869C55.8603 4.7075 59.9777 3.08325 64.2709 3.08325ZM64.2709 6.16659C60.8363 6.16659 57.5424 7.46599 55.1138 9.77894C52.6852 12.0919 51.3209 15.2289 51.3209 18.4999C51.3209 21.7709 52.6852 24.908 55.1138 27.2209C57.5424 29.5339 60.8363 30.8333 64.2709 30.8333C67.7054 30.8333 70.9993 29.5339 73.4279 27.2209C75.8565 24.908 77.2209 21.7709 77.2209 18.4999C77.2209 15.2289 75.8565 12.0919 73.4279 9.77894C70.9993 7.46599 67.7054 6.16659 64.2709 6.16659Z" fill="#6667AB"/>
<path d="M99.7347 26.5937L101.224 20.5966L96.3677 16.6191L102.762 16.0487L105.271 10.4833L107.78 16.1103L114.174 16.6191L109.318 20.5966L110.807 26.5937L105.271 23.4178L99.7347 26.5937ZM105.271 3.08325C107.397 3.08325 109.502 3.48202 111.466 4.25678C113.43 5.03154 115.214 6.16712 116.717 7.59869C118.22 9.03026 119.413 10.7298 120.226 12.6002C121.04 14.4707 121.458 16.4754 121.458 18.4999C121.458 22.5887 119.753 26.51 116.717 29.4011C113.681 32.2923 109.564 33.9166 105.271 33.9166C103.145 33.9166 101.04 33.5178 99.0762 32.7431C97.1122 31.9683 95.3277 30.8327 93.8246 29.4011C90.7888 26.51 89.0834 22.5887 89.0834 18.4999C89.0834 14.4112 90.7888 10.4899 93.8246 7.59869C96.8603 4.7075 100.978 3.08325 105.271 3.08325ZM105.271 6.16659C101.836 6.16659 98.5424 7.46599 96.1138 9.77894C93.6852 12.0919 92.3209 15.2289 92.3209 18.4999C92.3209 21.7709 93.6852 24.908 96.1138 27.2209C98.5424 29.5339 101.836 30.8333 105.271 30.8333C108.705 30.8333 111.999 29.5339 114.428 27.2209C116.857 24.908 118.221 21.7709 118.221 18.4999C118.221 15.2289 116.857 12.0919 114.428 9.77894C111.999 7.46599 108.705 6.16659 105.271 6.16659Z" fill="#6667AB"/>
<path d="M140.735 26.5937L142.224 20.5966L137.368 16.6191L143.762 16.0487L146.271 10.4833L148.78 16.1103L155.174 16.6191L150.318 20.5966L151.807 26.5937L146.271 23.4178L140.735 26.5937ZM146.271 3.08325C148.397 3.08325 150.502 3.48202 152.466 4.25678C154.43 5.03154 156.214 6.16712 157.717 7.59869C159.22 9.03026 160.413 10.7298 161.226 12.6002C162.04 14.4707 162.458 16.4754 162.458 18.4999C162.458 22.5887 160.753 26.51 157.717 29.4011C154.681 32.2923 150.564 33.9166 146.271 33.9166C144.145 33.9166 142.04 33.5178 140.076 32.7431C138.112 31.9683 136.328 30.8327 134.825 29.4011C131.789 26.51 130.083 22.5887 130.083 18.4999C130.083 14.4112 131.789 10.4899 134.825 7.59869C137.86 4.7075 141.978 3.08325 146.271 3.08325ZM146.271 6.16659C142.836 6.16659 139.542 7.46599 137.114 9.77894C134.685 12.0919 133.321 15.2289 133.321 18.4999C133.321 21.7709 134.685 24.908 137.114 27.2209C139.542 29.5339 142.836 30.8333 146.271 30.8333C149.705 30.8333 152.999 29.5339 155.428 27.2209C157.857 24.908 159.221 21.7709 159.221 18.4999C159.221 15.2289 157.857 12.0919 155.428 9.77894C152.999 7.46599 149.705 6.16659 146.271 6.16659Z" fill="#6667AB"/>
<path d="M181.735 26.5937L183.224 20.5966L178.368 16.6191L184.762 16.0487L187.271 10.4833L189.78 16.1103L196.174 16.6191L191.318 20.5966L192.807 26.5937L187.271 23.4178L181.735 26.5937ZM187.271 3.08325C189.397 3.08325 191.502 3.48202 193.466 4.25678C195.43 5.03154 197.214 6.16712 198.717 7.59869C200.22 9.03026 201.413 10.7298 202.226 12.6002C203.04 14.4707 203.458 16.4754 203.458 18.4999C203.458 22.5887 201.753 26.51 198.717 29.4011C195.681 32.2923 191.564 33.9166 187.271 33.9166C185.145 33.9166 183.04 33.5178 181.076 32.7431C179.112 31.9683 177.328 30.8327 175.825 29.4011C172.789 26.51 171.083 22.5887 171.083 18.4999C171.083 14.4112 172.789 10.4899 175.825 7.59869C178.86 4.7075 182.978 3.08325 187.271 3.08325ZM187.271 6.16659C183.836 6.16659 180.542 7.46599 178.114 9.77894C175.685 12.0919 174.321 15.2289 174.321 18.4999C174.321 21.7709 175.685 24.908 178.114 27.2209C180.542 29.5339 183.836 30.8333 187.271 30.8333C190.705 30.8333 193.999 29.5339 196.428 27.2209C198.857 24.908 200.221 21.7709 200.221 18.4999C200.221 15.2289 198.857 12.0919 196.428 9.77894C193.999 7.46599 190.705 6.16659 187.271 6.16659Z" fill="#6667AB"/>
<path d="M222.735 26.5937L224.224 20.5966L219.368 16.6191L225.762 16.0487L228.271 10.4833L230.78 16.1103L237.174 16.6191L232.318 20.5966L233.807 26.5937L228.271 23.4178L222.735 26.5937ZM228.271 3.08325C230.397 3.08325 232.502 3.48202 234.466 4.25678C236.43 5.03154 238.214 6.16712 239.717 7.59869C241.22 9.03026 242.413 10.7298 243.226 12.6002C244.04 14.4707 244.458 16.4754 244.458 18.4999C244.458 22.5887 242.753 26.51 239.717 29.4011C236.681 32.2923 232.564 33.9166 228.271 33.9166C226.145 33.9166 224.04 33.5178 222.076 32.7431C220.112 31.9683 218.328 30.8327 216.825 29.4011C213.789 26.51 212.083 22.5887 212.083 18.4999C212.083 14.4112 213.789 10.4899 216.825 7.59869C219.86 4.7075 223.978 3.08325 228.271 3.08325ZM228.271 6.16659C224.836 6.16659 221.542 7.46599 219.114 9.77894C216.685 12.0919 215.321 15.2289 215.321 18.4999C215.321 21.7709 216.685 24.908 219.114 27.2209C221.542 29.5339 224.836 30.8333 228.271 30.8333C231.705 30.8333 234.999 29.5339 237.428 27.2209C239.857 24.908 241.221 21.7709 241.221 18.4999C241.221 15.2289 239.857 12.0919 237.428 9.77894C234.999 7.46599 231.705 6.16659 228.271 6.16659Z" fill="#6667AB"/>
<path d="M261.735 26.5937L263.224 20.5966L258.368 16.6191L264.762 16.0487L267.271 10.4833L269.78 16.1103L276.174 16.6191L271.318 20.5966L272.807 26.5937L267.271 23.4178L261.735 26.5937ZM267.271 3.08325C269.397 3.08325 271.502 3.48202 273.466 4.25678C275.43 5.03154 277.214 6.16712 278.717 7.59869C280.22 9.03026 281.413 10.7298 282.226 12.6002C283.04 14.4707 283.458 16.4754 283.458 18.4999C283.458 22.5887 281.753 26.51 278.717 29.4011C275.681 32.2923 271.564 33.9166 267.271 33.9166C265.145 33.9166 263.04 33.5178 261.076 32.7431C259.112 31.9683 257.328 30.8327 255.825 29.4011C252.789 26.51 251.083 22.5887 251.083 18.4999C251.083 14.4112 252.789 10.4899 255.825 7.59869C258.86 4.7075 262.978 3.08325 267.271 3.08325ZM267.271 6.16659C263.836 6.16659 260.542 7.46599 258.114 9.77894C255.685 12.0919 254.321 15.2289 254.321 18.4999C254.321 21.7709 255.685 24.908 258.114 27.2209C260.542 29.5339 263.836 30.8333 267.271 30.8333C270.705 30.8333 273.999 29.5339 276.428 27.2209C278.857 24.908 280.221 21.7709 280.221 18.4999C280.221 15.2289 278.857 12.0919 276.428 9.77894C273.999 7.46599 270.705 6.16659 267.271 6.16659Z" fill="#6667AB"/>
</g>
<defs>
<clipPath id="clip0_11_101">
<rect width="268" height="50" fill="white"/>
</clipPath>
</defs>
</svg>
