<svg width="63" height="64" viewBox="0 0 63 64" fill="none" xmlns="http://www.w3.org/2000/svg">
<path d="M49.6125 54.1333L34.9125 39.2C33.6 40.2667 32.0906 41.1111 30.3844 41.7333C28.6781 42.3556 26.8625 42.6667 24.9375 42.6667C20.1687 42.6667 16.1333 40.9893 12.831 37.6347C9.527 34.2782 7.875 30.1778 7.875 25.3333C7.875 20.4889 9.527 16.3884 12.831 13.032C16.1333 9.67733 20.1687 8 24.9375 8C29.7062 8 33.7426 9.67733 37.0466 13.032C40.3489 16.3884 42 20.4889 42 25.3333C42 27.2889 41.6937 29.1333 41.0812 30.8667C40.4688 32.6 39.6375 34.1333 38.5875 35.4667L53.3531 50.4667C53.8344 50.9556 54.075 51.5556 54.075 52.2667C54.075 52.9778 53.8125 53.6 53.2875 54.1333C52.8062 54.6222 52.1938 54.8667 51.45 54.8667C50.7062 54.8667 50.0938 54.6222 49.6125 54.1333ZM24.9375 37.3333C28.2188 37.3333 31.0082 36.1671 33.306 33.8347C35.602 31.5004 36.75 28.6667 36.75 25.3333C36.75 22 35.602 19.1662 33.306 16.832C31.0082 14.4996 28.2188 13.3333 24.9375 13.3333C21.6562 13.3333 18.8667 14.4996 16.569 16.832C14.273 19.1662 13.125 22 13.125 25.3333C13.125 28.6667 14.273 31.5004 16.569 33.8347C18.8667 36.1671 21.6562 37.3333 24.9375 37.3333Z" fill="#333333"/>
</svg>
