<svg width="37" height="37" viewBox="0 0 37 37" fill="none" xmlns="http://www.w3.org/2000/svg">
<path d="M13.7347 26.5937L15.224 20.5966L10.3677 16.6191L16.7618 16.0487L19.2709 10.4833L21.7799 16.1103L28.174 16.6191L23.3177 20.5966L24.807 26.5937L19.2709 23.4178L13.7347 26.5937ZM19.2709 3.08325C21.3966 3.08325 23.5016 3.48202 25.4656 4.25678C27.4295 5.03154 29.214 6.16712 30.7172 7.59869C32.2203 9.03026 33.4127 10.7298 34.2262 12.6002C35.0397 14.4707 35.4584 16.4754 35.4584 18.4999C35.4584 22.5887 33.7529 26.51 30.7172 29.4011C27.6814 32.2923 23.5641 33.9166 19.2709 33.9166C17.1451 33.9166 15.0401 33.5178 13.0762 32.7431C11.1122 31.9683 9.32773 30.8327 7.82458 29.4011C4.78884 26.51 3.08337 22.5887 3.08337 18.4999C3.08337 14.4112 4.78884 10.4899 7.82458 7.59869C10.8603 4.7075 14.9777 3.08325 19.2709 3.08325ZM19.2709 6.16659C15.8363 6.16659 12.5424 7.46599 10.1138 9.77894C7.68525 12.0919 6.32087 15.2289 6.32087 18.4999C6.32087 21.7709 7.68525 24.908 10.1138 27.2209C12.5424 29.5339 15.8363 30.8333 19.2709 30.8333C22.7054 30.8333 25.9993 29.5339 28.4279 27.2209C30.8565 24.908 32.2209 21.7709 32.2209 18.4999C32.2209 15.2289 30.8565 12.0919 28.4279 9.77894C25.9993 7.46599 22.7054 6.16659 19.2709 6.16659Z" fill="#6667AB"/>
</svg>
